<?xml version="1.0" encoding="UTF-8"?>
<svg id="Layer_1" data-name="Layer 1" xmlns="http://www.w3.org/2000/svg" viewBox="0 0 81.52 81.52">
  <path d="M40.69,6.25C22.22,6.25,7.22,21.81,7.22,40.83s15,34.44,33.47,34.44,33.61-15.42,33.61-34.44S59.31,6.25,40.69,6.25Z" style="fill: #fff;"/>
  <path d="M40.69,0C18.19,0,0,18.33,0,40.83s18.19,40.69,40.69,40.69,40.83-18.19,40.83-40.69S63.19,0,40.69,0ZM35,16.94c-6.94,1.67-12.78,6.25-16.11,12.64-.69,1.39-2.22,2.22-3.61,2.22-.69,0-1.25-.14-1.94-.42-1.94-.97-2.78-3.47-1.81-5.56,4.31-8.47,12.22-14.58,21.39-16.81,2.22-.56,4.44.83,5,3.06.56,2.08-.83,4.31-2.92,4.86h0Z" style="fill: #5632a0;"/>
</svg>